<svg width="800" height="560" viewBox="0 0 800 560" fill="none" xmlns="http://www.w3.org/2000/svg">
  <defs>
    <linearGradient id="bg" x1="58" y1="76" x2="742" y2="484" gradientUnits="userSpaceOnUse">
      <stop stop-color="#111827"/>
      <stop offset="1" stop-color="#1E3A8A"/>
    </linearGradient>
  </defs>
  <rect width="800" height="560" rx="36" fill="#0F172A"/>
  <rect x="58" y="76" width="684" height="408" rx="24" fill="url(#bg)"/>
  <circle cx="632" cy="174" r="112" fill="#06B6D4" fill-opacity="0.24"/>
  <circle cx="202" cy="416" r="176" fill="#2563EB" fill-opacity="0.18"/>
  <rect x="162" y="170" width="220" height="170" rx="18" fill="white" fill-opacity="0.94"/>
  <!-- Letter A - Simple & Clean -->
  <g>
    <path d="M190 268 L220 188 L250 268 Z" fill="#3B82F6"/>
    <rect x="204" y="230" width="32" height="10" fill="white"/>
  </g>
  <!-- Letter B - Simple & Clean -->
  <g>
    <rect x="285" y="188" width="22" height="80" fill="#06B6D4"/>
    <path d="M307 188 C318 188 326 196 326 207 C326 217 318 224 307 224 L285 224 L285 188 Z" fill="#06B6D4"/>
    <path d="M307 224 C320 224 330 234 330 248 C330 262 320 268 307 268 L285 268 L285 224 Z" fill="#06B6D4"/>
  </g>
  <rect x="428" y="154" width="206" height="92" rx="16" fill="#0F172A" fill-opacity="0.84"/>
  <rect x="446" y="180" width="96" height="12" rx="6" fill="#22D3EE"/>
  <rect x="446" y="206" width="136" height="10" rx="5" fill="#E2E8F0"/>
  <rect x="428" y="282" width="206" height="112" rx="16" fill="#111827" fill-opacity="0.94"/>
  <path d="M468 350C500 304 548 300 580 334C612 368 618 412 590 424H476C440 412 438 386 468 350Z" fill="#60A5FA"/>
  <rect x="174" y="370" width="326" height="20" rx="10" fill="white" fill-opacity="0.18"/>
</svg>
